<svg width="358" height="235" viewBox="0 0 358 235" fill="none" xmlns="http://www.w3.org/2000/svg">
<path d="M55.6038 112.92C53.4972 102.561 52.2256 58.2106 137.134 45.6983C222.042 33.1859 322.463 63.8831 246.4 144.201C183.23 210.906 132.149 197.931 89.2243 160.84C61.1772 136.605 57.7104 123.279 55.6038 112.92Z" fill="white"/>
<circle cx="173.421" cy="110.843" r="38.279" fill="#E5E5E5"/>
<circle cx="169.426" cy="107.514" r="38.279" fill="#FFDC62"/>
<path d="M164.433 121.161C169.426 125.489 170.758 126.154 175.085 121.161" stroke="black" stroke-width="1.99717" stroke-linecap="round"/>
<ellipse cx="152.65" cy="105.984" rx="11.6501" ry="10.9844" fill="white"/>
<ellipse cx="185.65" cy="105.984" rx="11.6501" ry="10.9844" fill="white"/>
<circle cx="153" cy="106" r="8" fill="black"/>
<circle cx="145" cy="121" r="5" fill="#E76060"/>
<circle cx="195" cy="121" r="5" fill="#E76060"/>
<ellipse cx="185.5" cy="106" rx="8.5" ry="8" fill="black"/>
<path d="M102.823 74.5609C90.008 75.4549 83.6332 97.5054 86.5947 107.871" stroke="white" stroke-width="15.9773" stroke-linecap="round"/>
<path d="M145.46 90.8711C146.242 88.8674 146.596 87.3179 148.475 86.0261C148.62 85.9264 150.146 84.653 150.379 84.9536C150.688 85.3508 149.319 86.3469 149.122 86.5439" stroke="#FFE68C" stroke-width="7.32295" stroke-linecap="round"/>
</svg>
